<?xml version="1.0" encoding="utf-8" ?><svg xmlns="http://www.w3.org/2000/svg" xmlns:xlink="http://www.w3.org/1999/xlink" width="1056" height="976" viewBox="0 0 1056 976"><path fill="#472807" d="M527.106 105.367C529.052 105.14 533.672 105.023 535.765 105.023C551.403 105.027 562.621 114.864 565.546 130.142C566.368 134.43 566.141 142.882 567.622 146.442C571.801 156.485 583.789 172.585 589.521 181.454C591.308 184.22 614.823 196.103 619.5 199.747C623.805 203.101 628.033 207.128 632.1 210.51C638.19 215.572 643.285 218.419 649.238 224.329C659.222 234.245 665.36 244.904 672.897 256.547C675.712 260.895 680.387 265.708 682.604 270.387C684.321 274.012 684.945 279.199 686.536 283.146C688.038 287.257 690.364 291.604 691.531 295.806C698.28 320.11 703.932 345.022 707.067 370.056C707.995 377.467 707.808 384.972 708.356 392.354C709.308 405.166 709.677 417.741 709.736 430.569C714.904 431.19 720.436 431.307 725.603 432.54C766.519 442.306 796.864 488.122 789.035 529.661C786.471 543.263 780.629 552.33 769.277 559.69C770.793 563.899 772.354 570.43 773.476 574.856C783.658 615.031 779.267 651.486 761.786 688.878C751.602 710.464 733.256 727.117 710.788 735.17C702.054 738.293 691.362 739.158 682.634 734.852C665.177 726.24 674.581 701.75 674.301 686.638C674.028 671.84 674.732 658.104 670.082 643.944C662.406 657.938 653.803 676.987 645.846 690.206C632.093 713.053 605.579 743.684 585.165 760.906C536.341 802.097 470.186 833.1 405.702 834.364C398.552 834.505 389.116 834.978 382.039 834.363C358.344 833.486 333.222 827.912 310.709 820.629C302.728 818.047 294.58 813.867 286.8 811.362C274.292 807.624 267.818 806.955 259.789 795.567C251.408 783.678 249.974 763.691 254.356 750.184C257.242 741.286 273.937 731.608 280.217 725.058C291.906 712.868 301.706 697.802 314.76 686.798C355.845 648.969 407.127 618.603 433.074 567.202C438.946 555.57 445.361 542.373 447.98 529.786C411.37 532.284 402.607 555.742 381.867 581.841C367.129 604.073 348.047 606.552 331.437 584.173C319.162 567.636 324.21 530.98 333.008 513.802C341.844 496.55 356.114 480.31 371.963 469.65C367.775 461.593 365.423 452.291 369.314 443.66C377.434 425.78 390.821 413.806 406.908 403.247C419.717 394.84 420.819 394.585 435.545 393.226C458.074 391.147 468.36 395.011 488.242 404.036C491.949 374.338 489.148 341.911 490.659 311.98C491.356 298.179 491.084 281.321 493.969 267.896C497.29 252.444 503.609 235.866 508.812 220.91C510.491 216.251 517.561 206.158 516.407 200.82C511.863 180.862 487.318 169.8 484.87 148.719C483.09 133.38 489.817 124.119 502.77 117.264C512.632 112.045 515.102 106.618 527.106 105.367Z"/><path fill="#F9D84E" d="M461.754 531.388C468.31 531.546 474.538 531.809 480.723 534.265C500.177 541.991 513.111 560.629 523.855 577.485C525.375 579.89 529.293 586.93 531.907 587.573C534.726 588.267 540.761 581.382 543.513 580.287C546.724 577.756 548.654 576.51 552.174 574.381C590.704 553.206 633.337 560.444 654.133 601.895C657.615 608.836 662.217 616.77 664.135 624.304C657.933 634.145 653.362 645.293 648.466 655.836C602.597 754.612 491.827 825.248 382.291 820.683C352.294 819.432 323.584 810.74 295.885 798.509C296.602 795.829 296.794 795.113 298.073 792.676C303.624 786.324 303.037 781.777 303.225 773.803C302.344 762.928 300.823 757.875 295.258 748.463C291.956 745.486 288.375 742.745 284.861 740.019C288.528 736.473 292.374 730.971 295.745 726.941C332.564 682.925 385.056 654.821 421.325 610.273C429.562 600.157 438.262 583.947 444.738 572.394C452.075 558.308 457.62 546.794 461.754 531.388Z"/><path fill="#E0A639" d="M552.174 574.381C590.704 553.206 633.337 560.444 654.133 601.895C657.615 608.836 662.217 616.77 664.135 624.304C657.933 634.145 653.362 645.293 648.466 655.836C602.597 754.612 491.827 825.248 382.291 820.683C352.294 819.432 323.584 810.74 295.885 798.509C296.602 795.829 296.794 795.113 298.073 792.676C303.624 786.324 303.037 781.777 303.225 773.803C315.156 773.932 325.228 774.844 337.55 774.361C349.085 773.908 357.221 772.19 368.23 771.05C405.313 767.209 442.399 759.15 476.019 742.588C487.136 737.111 496.105 730.061 506.352 723.64C513.644 717.974 521.006 712.172 528.121 706.289C547.687 690.11 561.816 669.178 574.664 647.557C575.098 645.94 579.103 639.065 579.945 637.272C585.752 624.906 592.854 613.345 592.609 599.211C592.567 596.738 593.656 592.989 594.369 590.498C589.993 588.513 585.627 586.504 581.272 584.472C579.717 581.356 571.763 576.934 568.744 577.283C565.408 576.974 556.545 575.012 552.174 574.381Z"/><path fill="#C58922" d="M574.664 647.557C577.499 648.676 577.559 651.025 578.356 653.809C574.579 663.907 570.678 668.492 564.794 676.98C553.366 693.464 540.544 707.066 524.174 718.726C521.458 720.661 519.111 722.989 516.081 725.04L515.728 724.663C520.751 719.46 531.126 712.914 536.387 707.986C540.056 704.549 548.995 695.674 551.971 692.153C555.902 687.501 573.678 664.169 574.845 659.42C573.998 657.973 572.052 657.023 570.563 656.095C557.361 679.115 539.325 700.151 517.929 715.651C515.834 717.169 508.849 723.115 507.074 723.939L506.352 723.64C513.644 717.974 521.006 712.172 528.121 706.289C547.687 690.11 561.816 669.178 574.664 647.557Z"/><path fill="#FCEEB1" d="M444.738 572.394L446.843 572.871L453.045 575.622C449.899 584.785 445.724 593.872 442.782 601.219C433.386 624.683 422.298 642.852 397.824 652.097C396.571 652.571 386.894 665.579 383.543 666.563C378.198 670.394 373.075 674.435 367.251 677.678C365.577 678.706 362.552 682.043 360.369 683.616C354.139 688.105 345.113 692.924 339.503 697.828C328.576 707.445 318.497 717.72 309.045 728.79C304.513 734.097 299.557 739.252 295.669 745.086C295.165 745.843 295.96 746.841 295.258 748.463C291.956 745.486 288.375 742.745 284.861 740.019C288.528 736.473 292.374 730.971 295.745 726.941C332.564 682.925 385.056 654.821 421.325 610.273C429.562 600.157 438.262 583.947 444.738 572.394Z"/><path fill="#E0A639" d="M461.754 531.388C468.31 531.546 474.538 531.809 480.723 534.265C500.177 541.991 513.111 560.629 523.855 577.485C512.555 577.368 507.737 578.687 496.931 580.294C496.809 580.343 496.686 580.392 496.564 580.441C482.575 583.186 469.718 582.014 456.613 576.377C454.396 575.423 449.792 573.964 449.357 571.525L446.843 572.871L444.738 572.394C452.075 558.308 457.62 546.794 461.754 531.388Z"/><path fill="#E4AE3C" d="M449.357 571.525C450.984 569.943 459.141 568.36 461.536 568.634C465.522 569.09 471.274 572.937 475.363 573.221C490.554 574.279 506.345 575.498 521.54 575.992L521.974 576.66C512.988 576.813 504.766 577.949 495.961 579.753C496.53 580.296 496.202 580.125 496.931 580.294C496.809 580.343 496.686 580.392 496.564 580.441C482.575 583.186 469.718 582.014 456.613 576.377C454.396 575.423 449.792 573.964 449.357 571.525Z"/><path fill="#E0A639" d="M543.513 580.287C546.724 577.756 548.654 576.51 552.174 574.381C556.545 575.012 565.408 576.974 568.744 577.283C571.763 576.934 579.717 581.356 581.272 584.472C568.528 580.68 559.317 580.566 546.311 580.529C545.05 580.846 544.885 580.614 543.513 580.287Z"/><path fill="#E4AE3C" d="M568.744 577.283C571.763 576.934 579.717 581.356 581.272 584.472C568.528 580.68 559.317 580.566 546.311 580.529C550.92 577.034 570.029 581.014 577.052 581.65C574.07 579.741 571.042 579.233 568.744 577.283Z"/><defs><linearGradient id="gradient_0" gradientUnits="userSpaceOnUse" x1="455.59888" y1="697.50647" x2="444.79456" y2="686.43524"><stop offset="0" stop-color="#7D4F06"/><stop offset="1" stop-color="#9E7111"/></linearGradient></defs><path fill="url(#gradient_0)" d="M471.308 672.497C475.175 669.475 479.207 670.382 479.057 675.757C469.462 689.597 441.287 707.298 425.43 713.178C422.958 711.74 422.273 711.393 420.53 709.149C420.559 707.073 426.138 704.922 428.268 703.95C443.63 696.94 460.164 685.285 471.308 672.497Z"/><path fill="#C58922" d="M471.308 672.497C475.175 669.475 479.207 670.382 479.057 675.757C475.71 674.785 474.408 674.065 471.308 672.497Z"/><path fill="#FAE382" d="M570.671 208.498C577.501 203.462 577.727 198.431 581.212 191.84C591.295 198.974 602.199 202.741 612.179 210.234C640.123 231.216 662.187 260.29 674.88 292.832C680.795 307.997 686.223 332.73 688.844 348.921C693.568 378.106 696.082 411.306 694.24 440.829C693.464 453.272 690.556 468.071 689.986 481.065C689.667 488.319 687.832 494.148 688.239 502.339C685.693 503.053 680.756 503.3 677.916 503.416C645.167 504.754 615.055 516.147 585.378 528.997C561.432 539.366 551.189 542.589 537.143 565.528L536.248 567.007C535.893 559.657 536.135 556.807 533.804 549.736C521.747 519.415 512.642 513.471 490.505 491.193C491.954 485.156 492.906 477.005 493.806 470.711C496.07 454.506 498.013 438.257 499.635 421.975C500.446 414.237 501.025 405.505 502.469 397.944C500.157 394.714 498.77 382.309 500.592 378.184C502.62 376.318 503.428 375.787 504.268 373.265C505.629 336.086 502.657 295.486 511.076 258.661C514.187 245.053 522.881 228.27 527.007 214.153C529.337 215.058 532.875 216.71 535.215 216.741L537.5 217.478C552.522 217.923 558.287 217.31 570.671 208.498Z"/><path fill="#E4AE3C" d="M570.671 208.498C577.501 203.462 577.727 198.431 581.212 191.84C591.295 198.974 602.199 202.741 612.179 210.234C640.123 231.216 662.187 260.29 674.88 292.832C680.795 307.997 686.223 332.73 688.844 348.921C693.568 378.106 696.082 411.306 694.24 440.829C693.464 453.272 690.556 468.071 689.986 481.065C689.667 488.319 687.832 494.148 688.239 502.339C683.894 501.032 661.816 503.599 656.118 504.576C652.387 505.216 648.846 506.504 644.59 506.876C644.757 505.085 644.392 505.779 645.441 504.605C646.816 504.468 647.079 504.519 648.379 503.983C646.75 503.462 644.951 503.187 644.555 501.438C646.092 498.997 654.505 496.743 658.582 494.74C652.658 496.796 649.717 496.595 643.912 500.403C643.733 475.875 646.185 452.424 647.648 428.049C648.177 419.238 646.838 408.511 646.846 399.38C647.586 401.08 648.034 402.584 649.439 403.761L650.141 403.567C658.143 405.643 659.464 399.513 658.314 392.862C656.249 380.922 650.933 374.317 641.386 367.322C641.828 366.23 637.88 345.796 637.371 342.791C637.407 340.059 635.492 330.862 634.927 327.916C629.575 300.007 617.796 270.075 601.199 246.979C593.561 236.351 580.918 222.961 574.561 212.527C572.821 211.624 571.904 210.088 570.671 208.498Z"/><path fill="#F9D84E" d="M537.5 217.478C552.522 217.923 558.287 217.31 570.671 208.498C571.904 210.088 572.821 211.624 574.561 212.527C580.918 222.961 593.561 236.351 601.199 246.979C617.796 270.075 629.575 300.007 634.927 327.916C635.492 330.862 637.407 340.059 637.371 342.791C635.809 340.908 634.48 330.02 633.65 326.078C630.023 308.865 624.577 290.336 615.657 275.123C613.651 272.813 609.026 272.53 606.372 272.817C598.569 273.661 589.044 278.629 584.401 284.868C578.584 292.684 577.02 302.644 567.361 306.207C566.066 305.843 564.606 305.478 563.348 305.114C553.551 302.282 541.858 307.699 540.586 292.832C540.381 290.436 539.145 287.119 538.903 284.11C538.766 286.552 538.421 294.182 537.41 296.041C536.974 292.385 537.219 289.766 537.43 286.078C542.844 271.997 538.119 235.601 537.733 220.035L537.5 217.478Z"/><path fill="#E0A639" d="M537.5 217.478C552.522 217.923 558.287 217.31 570.671 208.498C571.904 210.088 572.821 211.624 574.561 212.527C563.733 218.463 551.397 222.907 538.847 220.864L537.733 220.035L537.5 217.478Z"/><defs><linearGradient id="gradient_1" gradientUnits="userSpaceOnUse" x1="547.60583" y1="294.62589" x2="493.7923" y2="302.29843"><stop offset="0" stop-color="#FBF8BA"/><stop offset="1" stop-color="#FFEFD3"/></linearGradient></defs><path fill="url(#gradient_1)" d="M527.007 214.153C529.337 215.058 532.875 216.71 535.215 216.741L537.5 217.478L537.733 220.035C538.119 235.601 542.844 271.997 537.43 286.078L535.829 290.218C532.521 292.516 529.861 292.921 525.811 292.916C524.562 294.692 524.455 294.771 524.005 296.846C524.468 299.422 525.585 300.043 527.68 301.513C527.483 303.875 527.325 306.812 526.972 309.104C527.036 322.827 525.593 336.468 525.885 350.243C525.986 354.997 525.646 359.711 526.299 364.461C516.399 368.934 509.815 374.176 506.036 384.708L506.063 385.593L504.886 388.249C504.657 391.843 503.662 394.562 502.469 397.944C500.157 394.714 498.77 382.309 500.592 378.184C502.62 376.318 503.428 375.787 504.268 373.265C505.629 336.086 502.657 295.486 511.076 258.661C514.187 245.053 522.881 228.27 527.007 214.153Z"/><path fill="#6B3513" d="M500.592 378.184C500.9 383.49 501.708 383.945 504.886 388.249C504.657 391.843 503.662 394.562 502.469 397.944C500.157 394.714 498.77 382.309 500.592 378.184Z"/><path fill="#FCEEB1" d="M520.543 297.574C521.003 294.026 521.59 290.613 522.191 287.086C523.362 289.051 524.569 290.995 525.811 292.916C524.562 294.692 524.455 294.771 524.005 296.846C524.468 299.422 525.585 300.043 527.68 301.513C527.483 303.875 527.325 306.812 526.972 309.104C525.921 306.319 526.086 306.294 526.679 303.278C526.386 302.625 522.278 299.477 521.039 298.121L520.543 297.574Z"/><path fill="#78431D" d="M500.592 378.184C502.62 376.318 503.428 375.787 504.268 373.265C504.088 377.246 503.324 381.67 506.036 384.708L506.063 385.593L504.886 388.249C501.708 383.945 500.9 383.49 500.592 378.184Z"/><path fill="#472807" d="M650.141 403.567L649.852 403.071C646.495 397.096 645.457 390.322 642.057 385.225C633.563 372.491 610.643 375.453 605.405 390.033C604.681 392.047 601.894 396.583 600.236 397.767C599.172 397.931 598.766 398.228 597.821 397.793C590.611 394.377 594.372 387.439 596.781 382.166C605.196 363.742 624.132 359.415 641.386 367.322C650.933 374.317 656.249 380.922 658.314 392.862C659.464 399.513 658.143 405.643 650.141 403.567Z"/><defs><linearGradient id="gradient_2" gradientUnits="userSpaceOnUse" x1="590.98834" y1="499.73422" x2="586.46899" y2="567.33636"><stop offset="0" stop-color="#BD9C4E"/><stop offset="1" stop-color="#F8D09B"/></linearGradient></defs><path fill="url(#gradient_2)" d="M643.912 500.403C649.717 496.595 652.658 496.796 658.582 494.74C654.505 496.743 646.092 498.997 644.555 501.438C644.951 503.187 646.75 503.462 648.379 503.983C647.079 504.519 646.816 504.468 645.441 504.605C644.392 505.779 644.757 505.085 644.59 506.876C648.846 506.504 652.387 505.216 656.118 504.576C661.816 503.599 683.894 501.032 688.239 502.339C685.693 503.053 680.756 503.3 677.916 503.416C645.167 504.754 615.055 516.147 585.378 528.997C561.432 539.366 551.189 542.589 537.143 565.528L536.248 567.007C535.893 559.657 536.135 556.807 533.804 549.736C537.316 547.794 540.036 544.376 543.514 542.108C566.041 527.422 592.014 519.953 616.951 510.562C624.327 507.785 637.49 504.367 643.912 500.403Z"/><path fill="#472807" d="M526.299 364.461C552.273 356.642 568.581 390.029 557.96 393.276C548.819 391.288 547.196 373.175 531.165 376.333C514.923 379.531 520.745 390.146 514.474 396.81C512.538 395.895 512.448 395.883 510.325 396.167C506.369 394.738 505.915 389.231 506.063 385.593L506.036 384.708C509.815 374.176 516.399 368.934 526.299 364.461Z"/><path fill="#FCEEB1" d="M525.811 292.916C529.861 292.921 532.521 292.516 535.829 290.218C533.708 294.88 528.871 295.101 527.68 301.513C525.585 300.043 524.468 299.422 524.005 296.846C524.455 294.771 524.562 294.692 525.811 292.916Z"/><defs><linearGradient id="gradient_3" gradientUnits="userSpaceOnUse" x1="575.5" y1="414.34299" x2="576.50653" y2="488.36243"><stop offset="0" stop-color="#301C01"/><stop offset="1" stop-color="#5E2B05"/></linearGradient></defs><path fill="url(#gradient_3)" d="M523.028 414.35C529.456 414.816 530.944 419.757 535.678 422.214C559.368 434.508 592.129 432.273 617.139 424.638C622.754 422.924 627.474 418.633 632.763 416.321L634.027 416.994C634.702 418.064 635 418.792 635.155 420.085C637.233 437.361 629.847 453.103 620.481 466.612C598.998 495.52 562.025 497.583 536.243 472.726C525.574 462.438 516.695 450.274 516.36 434.895C516.195 427.325 517.687 420.05 523.028 414.35Z"/><path fill="#5D2C0F" d="M526.76 427.448C542.693 437.127 555.097 439.748 573.763 439.315C592.5 438.88 607.8 438.5 625.544 431.721C623.495 440.699 618.085 456.559 611.046 462.785C600.288 474.368 588.273 479.31 572.514 478.99C565.142 478.84 559.515 476.326 552.834 473.493C552.667 473.51 551.606 473.49 551.485 473.405C534.868 461.805 522.936 448.654 526.76 427.448Z"/><path fill="#F08676" d="M546.893 469.458C559.797 459.064 573.311 451.827 590.535 454.82C598.178 456.148 604.173 459.406 611.046 462.785C600.288 474.368 588.273 479.31 572.514 478.99C565.142 478.84 559.515 476.326 552.834 473.493C552.349 472.807 547.923 470.119 546.893 469.458Z"/><defs><linearGradient id="gradient_4" gradientUnits="userSpaceOnUse" x1="643.86871" y1="634.05023" x2="752.41254" y2="559.67242"><stop offset="0" stop-color="#F9D86A"/><stop offset="1" stop-color="#FEEEC2"/></linearGradient></defs><path fill="url(#gradient_4)" d="M583.663 542.299C609.587 531.777 632.911 520.789 661.28 518.732C674.546 517.146 698.432 510.43 710.534 516.536C768.719 545.893 775.219 622.187 752.003 676.522C745.07 692.748 729.451 713.062 712.146 719.05C706.303 723.239 699.696 723.47 692.891 723.423C682.61 715.637 687.024 710.874 687.586 699.056C688.98 669.757 686.934 638.408 674.168 611.445C649.901 560.191 614.206 534.931 558.053 559.707C565.054 550.784 573.383 546.464 583.663 542.299Z"/><path fill="#E0A639" d="M583.663 542.299C584.65 543.448 585.3 543.828 586.995 543.704C606.757 542.254 642.43 546.074 656.491 561.932C673.392 580.992 686.835 608.326 699.096 630.564C706.514 644.953 709.153 667.608 713.637 683.917C718.411 684.027 720.622 684.499 724.903 682.451C728.683 682.513 728.242 687.206 731.775 690.511C729.525 693.183 726.84 697.445 724.632 700.428C721.699 704.393 703.874 718.449 703.721 721.272C706.606 721.631 708.659 718.696 712.146 719.05C706.303 723.239 699.696 723.47 692.891 723.423C682.61 715.637 687.024 710.874 687.586 699.056C688.98 669.757 686.934 638.408 674.168 611.445C649.901 560.191 614.206 534.931 558.053 559.707C565.054 550.784 573.383 546.464 583.663 542.299Z"/><path fill="#F9D84E" d="M724.903 682.451C730.138 674.392 720.413 643.803 721.219 640.291C725.169 652.181 726.337 662.249 726.513 674.714C726.538 676.479 726.235 680.8 727.563 681.633C730.606 680.045 733.553 677.878 736.555 680.749C738.289 684.738 734.712 688.054 731.775 690.511C728.242 687.206 728.683 682.513 724.903 682.451Z"/><path fill="#FCEEB1" d="M338.725 568.239C337.295 563.657 337.021 558.555 337.36 553.755C339.462 524.017 347.494 507.935 369.237 488.319C384.072 474.936 406.899 464.876 426.788 465.579C447.246 466.301 479.07 492.584 492.487 507.483C495.689 510.359 498.583 513.563 501.119 517.041C512.786 528.704 522.072 547.46 526.991 563.011L526.671 562.591C523.729 558.654 521.446 554.197 518.385 550.158C504.992 532.483 493.889 522.978 471.272 519.384C444.679 514.83 415.858 518.193 397.637 540.289C386.726 553.52 378.022 569.897 365.675 581.907C359.798 587.623 348.07 585.466 344.762 578.507C342.228 575.792 340.286 571.577 338.725 568.239Z"/><path fill="#E0A639" d="M346.548 552.981C355.377 547.214 356.36 543.557 363.327 536.816C377.573 523.034 401.326 509.373 421.008 507.252C424.486 507.345 429.464 507.278 432.711 508.111C449.513 506.383 464.771 510.455 481.101 513.443C484.869 514.132 499.13 518.282 501.119 517.041C512.786 528.704 522.072 547.46 526.991 563.011L526.671 562.591C523.729 558.654 521.446 554.197 518.385 550.158C504.992 532.483 493.889 522.978 471.272 519.384C444.679 514.83 415.858 518.193 397.637 540.289C386.726 553.52 378.022 569.897 365.675 581.907C359.798 587.623 348.07 585.466 344.762 578.507C342.228 575.792 340.286 571.577 338.725 568.239C341.368 565.942 345.262 556.432 346.548 552.981Z"/><path fill="#F9D84E" d="M346.548 552.981C355.377 547.214 356.36 543.557 363.327 536.816C377.573 523.034 401.326 509.373 421.008 507.252C424.486 507.345 429.464 507.278 432.711 508.111C407.095 515.115 368.265 536.053 352.064 557.464L345.965 557.669C344.163 561.301 341.549 566.205 340.221 569.911C341.581 572.109 344.713 576.369 344.762 578.507C342.228 575.792 340.286 571.577 338.725 568.239C341.368 565.942 345.262 556.432 346.548 552.981Z"/><path fill="#FAE382" d="M421.008 507.252C438.16 502.561 458.564 502.693 476.09 505.646C478.779 506.1 494.408 511.123 494.659 511.064L494.31 510.635C493.318 509.396 492.887 509.036 492.487 507.483C495.689 510.359 498.583 513.563 501.119 517.041C499.13 518.282 484.869 514.132 481.101 513.443C464.771 510.455 449.513 506.383 432.711 508.111C429.464 507.278 424.486 507.345 421.008 507.252Z"/><path fill="#F9D84E" d="M413.39 473.898C424.481 471.343 436.363 471.639 447.403 476.186C447.979 476.423 448.517 477.257 448.844 477.777L448.43 479.124C445.155 480.489 440.52 477.548 436.515 477.467C427.53 477.286 414.943 477.078 406.376 479.556L406.309 478.779C400.631 479.083 402.109 482.693 393.852 481.615C389.65 483.798 385.538 486.148 381.525 488.661L381.141 488.478C385.964 482.899 405.91 475.797 413.39 473.898Z"/><path fill="#F9D84E" d="M406.376 479.556L407.129 480.159C410.326 479.764 432.128 478.98 433.594 480.636C430.182 480.597 416.724 480.334 413.901 481.112C417.191 481.181 420.426 481.235 423.712 481.432C421.23 482.227 419.049 482.187 416.444 482.327C412.998 483.163 412.05 482.791 408.57 484.288L410.125 483.953C405.803 485.699 400.74 486.171 396.213 487.487C394.32 488.038 390.504 490.266 389.248 490.11C393.176 486.335 406.312 485.721 406.922 482.428L405.884 480.997L406.376 479.556Z"/><defs><linearGradient id="gradient_5" gradientUnits="userSpaceOnUse" x1="578.41791" y1="182.18256" x2="525.72406" y2="185.82426"><stop offset="0" stop-color="#8C8C25"/><stop offset="1" stop-color="#C5C65D"/></linearGradient></defs><path fill="url(#gradient_5)" d="M499.273 143.121C499.897 125.12 529.603 113.81 544.907 121.694C551.222 123.474 553.537 130.574 554.149 136.478C554.753 141.104 555.224 145.996 556.554 150.443C562.427 162.8 571.619 182.218 581.212 191.84C577.727 198.431 577.501 203.462 570.671 208.498C558.287 217.31 552.522 217.923 537.5 217.478L535.215 216.741C532.875 216.71 529.337 215.058 527.007 214.153C529.954 205.859 529.348 199.595 526.376 191.472C523.283 183.015 522.212 175.665 514.44 170.108L512.948 170.421C510.043 169.239 508.621 167.943 506.613 165.527C505.277 163.826 503.953 162.048 502.638 160.325C500.099 157.792 499.791 157.603 498.671 154.145C497.316 150.437 497.507 146.639 499.273 143.121Z"/><path fill="#78431D" d="M499.273 143.121C499.897 125.12 529.603 113.81 544.907 121.694C551.222 123.474 553.537 130.574 554.149 136.478C554.753 141.104 555.224 145.996 556.554 150.443C553.923 151.5 551.208 152.819 548.633 154.034C539.891 158.158 529.356 161.117 521.032 165.908C518.496 167.266 516.536 168.126 514.44 170.108L512.948 170.421C510.043 169.239 508.621 167.943 506.613 165.527C505.277 163.826 503.953 162.048 502.638 160.325C500.099 157.792 499.791 157.603 498.671 154.145C497.316 150.437 497.507 146.639 499.273 143.121Z"/><path fill="#5D2C0F" d="M554.149 136.478C554.753 141.104 555.224 145.996 556.554 150.443C553.923 151.5 551.208 152.819 548.633 154.034C539.891 158.158 529.356 161.117 521.032 165.908C518.496 167.266 516.536 168.126 514.44 170.108L512.948 170.421C510.043 169.239 508.621 167.943 506.613 165.527C518.169 146.522 540.849 147.996 554.149 136.478Z"/><path fill="#6B3513" d="M544.907 121.694C551.222 123.474 553.537 130.574 554.149 136.478C540.849 147.996 518.169 146.522 506.613 165.527C505.277 163.826 503.953 162.048 502.638 160.325C500.099 157.792 499.791 157.603 498.671 154.145C497.316 150.437 497.507 146.639 499.273 143.121C499.579 144.644 500.041 147.961 500.876 149.044C506.648 152.419 522.055 148.07 527.547 143.944C532.959 139.879 541.957 132.044 544.884 125.781C544.864 125.822 544.837 123.162 544.831 122.892L544.907 121.694Z"/><path fill="#78431D" d="M498.671 154.145C502.206 153.422 502.461 157.467 502.638 160.325C500.099 157.792 499.791 157.603 498.671 154.145Z"/><path fill="#E4AE3C" d="M499.273 143.121C499.897 125.12 529.603 113.81 544.907 121.694L544.831 122.892C541.406 124.279 537.604 124.277 534.007 125.018C529.267 125.994 525.024 128.625 520.871 130.996C517.084 133.157 512.458 136.705 508.856 139.311C508.492 139.574 507.834 139.211 507.38 139.018C504.781 141.693 504.192 145.648 500.876 149.044C500.041 147.961 499.579 144.644 499.273 143.121Z"/><path fill="#FAE382" d="M514.44 170.108C516.536 168.126 518.496 167.266 521.032 165.908C521.554 166.168 522.218 166.499 523.025 166.902C526.482 172.432 530.497 181.71 532.505 187.998C534.791 195.156 538.543 207.749 537.536 214.876C537.316 216.432 535.16 214.845 535.215 216.741C532.875 216.71 529.337 215.058 527.007 214.153C529.954 205.859 529.348 199.595 526.376 191.472C523.283 183.015 522.212 175.665 514.44 170.108Z"/><defs><linearGradient id="gradient_6" gradientUnits="userSpaceOnUse" x1="435.2771" y1="431.86389" x2="427.1619" y2="470.99133"><stop offset="0" stop-color="#F0BE35"/><stop offset="1" stop-color="#DAA752"/></linearGradient></defs><path fill="url(#gradient_6)" d="M401.899 423.698C404.778 421.758 409.764 417.542 412.426 416.086C427.823 407.663 446.431 404.075 463.42 407.877C467.745 409.032 472.822 410.748 476.812 412.782C478.841 414.318 479.741 414.987 481.461 416.836C483.008 418.945 484.773 421.216 486.108 423.441C486.287 432.894 484.818 440.007 482.71 449.2C480.648 458.222 479.469 464.004 478.785 473.334C470.49 467.555 462.849 461.706 452.946 458.996C446.44 457.344 438.995 454.383 432.305 453.833C416.08 452.498 398.254 458.598 383.101 463.495C378.577 449.325 380.185 443.917 391.058 433.044C393.186 430.382 399.044 425.888 401.899 423.698Z"/><defs><linearGradient id="gradient_7" gradientUnits="userSpaceOnUse" x1="447.35797" y1="434.38254" x2="456.17902" y2="406.45016"><stop offset="0" stop-color="#F6D567"/><stop offset="1" stop-color="#FCE9B1"/></linearGradient></defs><path fill="url(#gradient_7)" d="M401.899 423.698C404.778 421.758 409.764 417.542 412.426 416.086C427.823 407.663 446.431 404.075 463.42 407.877C467.745 409.032 472.822 410.748 476.812 412.782C478.841 414.318 479.741 414.987 481.461 416.836C483.008 418.945 484.773 421.216 486.108 423.441C486.287 432.894 484.818 440.007 482.71 449.2C482.591 447.922 482.588 447.495 482.237 446.274C479.918 444.312 478.262 444.308 475.181 444.002C464.24 439.264 447.84 436.69 436.221 431.393C431.848 428.856 427.915 426.631 423.402 424.309C421.953 423.81 420.516 423.278 419.092 422.712C413.465 425.128 407.328 427.717 401.899 423.698Z"/><path fill="#FCEEB1" d="M401.899 423.698C404.778 421.758 409.764 417.542 412.426 416.086C427.823 407.663 446.431 404.075 463.42 407.877C465.059 410.255 466.446 408.968 467.127 411.009C464.172 414.646 458.181 413.168 455.054 414.913L455.376 415.686C457.221 415.831 459.132 415.331 459.809 415.997L457.641 415.993L456.958 416.792C459.787 420.619 465.884 424.944 467.421 431.102C464.203 436.808 440.576 426.792 436.157 423.26C429.237 417.728 426.4 419.045 419.092 422.712C413.465 425.128 407.328 427.717 401.899 423.698Z"/><path fill="#E0A639" d="M481.461 416.836C483.008 418.945 484.773 421.216 486.108 423.441C486.287 432.894 484.818 440.007 482.71 449.2C482.591 447.922 482.588 447.495 482.237 446.274C479.918 444.312 478.262 444.308 475.181 444.002C476.625 437.887 476.984 432.71 476.965 426.472C477.612 422.069 479.062 420.699 481.461 416.836Z"/><path fill="#F9D84E" d="M476.812 412.782C478.841 414.318 479.741 414.987 481.461 416.836C479.062 420.699 477.612 422.069 476.965 426.472C476.629 422.425 477.194 417.587 476.812 412.782Z"/><path fill="#C58922" d="M419.092 422.712C420.516 423.278 421.953 423.81 423.402 424.309C427.915 426.631 431.848 428.856 436.221 431.393L432.544 431.205C426.021 430.865 421.958 432.697 416.511 435.823C415.207 437.003 413.177 438.726 412.078 440.001C406.835 443.874 403.889 444.564 397.618 445.188C396.436 443.397 395.638 441.852 393.924 440.598C393.379 439.244 393.409 437.209 393.334 435.678C394.278 432.616 394.094 432.689 396.712 430.671C397.318 430.204 397.892 429.454 397.889 428.655C395.297 430.228 394.088 432.085 391.058 433.044C393.186 430.382 399.044 425.888 401.899 423.698C407.328 427.717 413.465 425.128 419.092 422.712Z"/><path fill="#E0A639" d="M423.402 424.309C427.915 426.631 431.848 428.856 436.221 431.393L432.544 431.205C426.021 430.865 421.958 432.697 416.511 435.823C414.444 433.039 410.71 432.191 406.952 427.298C412.964 428.632 417.697 426.321 423.402 424.309Z"/><path fill="#E0A639" d="M401.076 431.759C405.215 436.289 406.612 437.116 412.078 440.001C406.835 443.874 403.889 444.564 397.618 445.188C396.436 443.397 395.638 441.852 393.924 440.598L395.326 439.451C396.448 434.647 397.603 434.535 401.076 431.759Z"/><path fill="#E4AE3C" d="M419.092 422.712C420.516 423.278 421.953 423.81 423.402 424.309C417.697 426.321 412.964 428.632 406.952 427.298C404.352 426.335 400.802 426.398 399.484 429.214C400.044 430.633 400.075 430.577 401.076 431.759C397.603 434.535 396.448 434.647 395.326 439.451L393.924 440.598C393.379 439.244 393.409 437.209 393.334 435.678C394.278 432.616 394.094 432.689 396.712 430.671C397.318 430.204 397.892 429.454 397.889 428.655C395.297 430.228 394.088 432.085 391.058 433.044C393.186 430.382 399.044 425.888 401.899 423.698C407.328 427.717 413.465 425.128 419.092 422.712Z"/><path fill="#E0A639" d="M397.618 445.188C398.263 446.351 398.795 447.542 399.364 448.746C397.568 450.609 391.602 451.969 389.392 448.95C388.694 444.587 391.408 439.718 393.334 435.678C393.409 437.209 393.379 439.244 393.924 440.598C395.638 441.852 396.436 443.397 397.618 445.188Z"/><path fill="#F9D84E" d="M710.508 444.791C712.923 444.65 715.726 444.355 718.081 444.676L720.737 445.159C742.909 452.59 756.909 462.571 767.392 483.719C768.026 484.987 768.596 486.286 769.099 487.611L769.547 488.597C773.198 497.593 776.437 506.608 776.269 516.453C776.061 528.636 773.745 540.649 763.114 547.978C756.791 540.383 750.491 533.496 743.752 526.316C733.883 515.802 729.963 506.217 715.775 500.978C711.131 499.031 706.021 498.997 701.903 496.586C701.02 495.085 701.253 495.681 701.553 493.583C702.643 478.802 706.806 460.892 708.031 446.007C709.102 444.753 708.466 445.307 710.508 444.791Z"/><path fill="#E4AE3C" d="M769.547 488.597C773.198 497.593 776.437 506.608 776.269 516.453C776.061 528.636 773.745 540.649 763.114 547.978C756.791 540.383 750.491 533.496 743.752 526.316C733.883 515.802 729.963 506.217 715.775 500.978C714.399 498.636 713.721 496.644 712.751 494.128C718.95 494.257 728.012 493.415 734.989 493.364C741.794 493.384 766.365 496.83 769.547 488.597Z"/><path fill="#FCEEB1" d="M710.508 444.791C712.923 444.65 715.726 444.355 718.081 444.676L720.737 445.159C742.909 452.59 756.909 462.571 767.392 483.719C768.026 484.987 768.596 486.286 769.099 487.611L768.701 488.662C763.933 490.173 736.934 486.386 730.881 483.523C729.842 471.692 728.693 467.862 723.012 457.396C716.068 457.512 712.583 457.543 711.072 450.36C711.035 448.506 710.743 446.635 710.508 444.791Z"/><path fill="#FAE382" d="M710.508 444.791C712.923 444.65 715.726 444.355 718.081 444.676L714.643 445.264C714.905 447.04 721.427 455.304 723.012 457.396C716.068 457.512 712.583 457.543 711.072 450.36C711.035 448.506 710.743 446.635 710.508 444.791Z"/><path fill="#E0A639" d="M708.031 446.007C709.102 444.753 708.466 445.307 710.508 444.791C710.743 446.635 711.035 448.506 711.072 450.36C711.249 459.897 709.728 480.078 711.375 487.56C717.156 487.863 727.832 489.131 733.542 490.915L734.105 490.698L734.066 492.596L734.989 493.364C728.012 493.415 718.95 494.257 712.751 494.128C713.721 496.644 714.399 498.636 715.775 500.978C711.131 499.031 706.021 498.997 701.903 496.586C701.02 495.085 701.253 495.681 701.553 493.583C702.643 478.802 706.806 460.892 708.031 446.007Z"/><path fill="#C58922" d="M701.553 493.583C703.833 495.191 709.065 493.651 712.751 494.128C713.721 496.644 714.399 498.636 715.775 500.978C711.131 499.031 706.021 498.997 701.903 496.586C701.02 495.085 701.253 495.681 701.553 493.583Z"/><path fill="#5D2C0F" d="M272.581 749.609C274.081 747.732 282.332 740.306 284.861 740.019C288.375 742.745 291.956 745.486 295.258 748.463C300.823 757.875 302.344 762.928 303.225 773.803C303.037 781.777 303.624 786.324 298.073 792.676C296.794 795.113 296.602 795.829 295.885 798.509C294.835 797.968 291.183 797.068 289.805 796.709C274.106 792.624 263.859 785.925 265.022 768.233C265.547 760.247 266.22 755.427 272.581 749.609Z"/><path fill="#78431D" d="M272.581 749.609C275.515 750.484 277.941 754.004 279.294 756.68C284.203 766.387 284.963 779.933 279.929 789.612C287.08 789.396 292.273 788.444 298.073 792.676C296.794 795.113 296.602 795.829 295.885 798.509C294.835 797.968 291.183 797.068 289.805 796.709C274.106 792.624 263.859 785.925 265.022 768.233C265.547 760.247 266.22 755.427 272.581 749.609Z"/><path fill="#6B3513" d="M708.031 446.007C707.405 444.024 707.364 441.906 708.189 439.983C712.113 436.909 716.521 440.995 720.226 442.828C720.795 443.11 720.689 444.513 720.737 445.159L718.081 444.676C715.726 444.355 712.923 444.65 710.508 444.791C708.466 445.307 709.102 444.753 708.031 446.007Z"/></svg>